<svg xmlns="http://www.w3.org/2000/svg" width="1536" height="1024" version="1.1" viewBox="0 0 2048 1365"><ns0:defs xmlns:ns0="http://www.w3.org/2000/svg"><ns0:pattern id="_i74wcz6y" patternUnits="userSpaceOnUse" width="546" height="546" patternTransform="rotate(-30)"><ns0:text x="273" y="273" font-family="Arial,Helvetica,sans-serif" font-size="45.5" fill="rgba(0,0,0,0.045)" font-weight="600" text-anchor="middle" letter-spacing="3">VECTOSOLVE</ns0:text></ns0:pattern><ns0:linearGradient id="a" x1="1025.4" x2="1026.21" y1="1098.36" y2="1191.99" gradientUnits="userSpaceOnUse"><ns0:stop offset="22.93%" stop-color="#7a74bb" /><ns0:stop offset="37.11%" stop-color="#c26295" /><ns0:stop offset="65.4%" stop-color="#e66571" /></ns0:linearGradient></ns0:defs><ns0:path xmlns:ns0="http://www.w3.org/2000/svg" fill="#623c1a" d="M513.682 1016.12C515.416 1016.14 520.876 1016.03 521.496 1016.74C525.622 1021.46 537.473 1050.73 538.563 1055.2C536.287 1056.7 535.929 1056.56 533.081 1056.66C527.077 1053.91 530.288 1048.38 523.25 1047.14L509.22 1047.19C507.223 1051.88 504.227 1060.12 496.875 1055.47C499.029 1047.92 509.945 1024.94 513.682 1016.12Z" /><ns0:path xmlns:ns0="http://www.w3.org/2000/svg" fill="#fef8f1" d="M517.461 1027.73C519.726 1029.84 522.24 1036.06 522.544 1039.33L521.014 1040.4C518.088 1040.34 516.003 1040.69 513.758 1039C513.217 1035.3 515.681 1031.68 517.461 1027.73Z" /><ns0:path xmlns:ns0="http://www.w3.org/2000/svg" fill="#fef8f1" d="M555.052 1023.74L555.721 1023.73C560.599 1023.63 566.21 1022.81 569.672 1026.13C571.113 1029.25 570.725 1029.78 569.976 1033.35C565.277 1034.96 560.93 1036.22 556.453 1033.89C554.209 1030.88 554.902 1027.72 555.052 1023.74Z" /><ns0:path xmlns:ns0="http://www.w3.org/2000/svg" fill="#623c1a" d="M545.964 1016.01C550.165 1015.95 556.577 1016.29 560.468 1015.89C577.945 1014.1 587.881 1029.97 571.558 1041.75C574.099 1046.1 580.333 1051.75 577.812 1056.01L572.064 1056.71C569.084 1054.65 565.124 1046.83 562.012 1042.79C551.06 1039.23 557.37 1048.67 553.745 1054.91C550.942 1056.62 550.456 1056.33 546.982 1056C545.324 1053.58 545.957 1021.21 545.964 1016.01Z" /></svg>